<svg width="0" height="0" class="hidden">
  <symbol version="1.1" xmlns="http://www.w3.org/2000/svg" xmlns:xlink="http://www.w3.org/1999/xlink" viewBox="0 0 700 700" id="paper">
    <defs>
      <symbol id="x" overflow="visible">
        <path d="m18.766-1.125c-0.96875 0.5-1.9805 0.875-3.0312 1.125-1.043 0.25781-2.1367 0.39062-3.2812 0.39062-3.3984 0-6.0898-0.94531-8.0781-2.8438-1.9922-1.9062-2.9844-4.4844-2.9844-7.7344 0-3.2578 0.99219-5.8359 2.9844-7.7344 1.9883-1.9062 4.6797-2.8594 8.0781-2.8594 1.1445 0 2.2383 0.13281 3.2812 0.39062 1.0508 0.25 2.0625 0.625 3.0312 1.125v4.2188c-0.98047-0.65625-1.9453-1.1406-2.8906-1.4531-0.94922-0.3125-1.9492-0.46875-3-0.46875-1.875 0-3.3516 0.60547-4.4219 1.8125-1.0742 1.1992-1.6094 2.8555-1.6094 4.9688 0 2.1055 0.53516 3.7617 1.6094 4.9688 1.0703 1.1992 2.5469 1.7969 4.4219 1.7969 1.0508 0 2.0508-0.14844 3-0.45312 0.94531-0.3125 1.9102-0.80078 2.8906-1.4688z"></path>
      </symbol>
      <symbol id="d" overflow="visible">
        <path d="m13.734-11.141c-0.4375-0.19531-0.87109-0.34375-1.2969-0.4375-0.41797-0.10156-0.83984-0.15625-1.2656-0.15625-1.2617 0-2.2305 0.40625-2.9062 1.2188-0.67969 0.80469-1.0156 1.9531-1.0156 3.4531v7.0625h-4.8906v-15.312h4.8906v2.5156c0.625-1 1.3438-1.7266 2.1562-2.1875 0.82031-0.46875 1.8008-0.70312 2.9375-0.70312 0.16406 0 0.34375 0.011719 0.53125 0.03125 0.19531 0.011719 0.47656 0.039062 0.84375 0.078125z"></path>
      </symbol>
      <symbol id="a" overflow="visible">
        <path d="m17.641-7.7031v1.4062h-11.453c0.125 1.1484 0.53906 2.0078 1.25 2.5781 0.70703 0.57422 1.7031 0.85938 2.9844 0.85938 1.0312 0 2.082-0.14844 3.1562-0.45312 1.082-0.3125 2.1914-0.77344 3.3281-1.3906v3.7656c-1.1562 0.4375-2.3125 0.76562-3.4688 0.98438-1.1562 0.22656-2.3125 0.34375-3.4688 0.34375-2.7734 0-4.9297-0.70312-6.4688-2.1094-1.5312-1.4062-2.2969-3.3789-2.2969-5.9219 0-2.5 0.75391-4.4609 2.2656-5.8906 1.5078-1.4375 3.582-2.1562 6.2188-2.1562 2.4062 0 4.332 0.73047 5.7812 2.1875 1.4453 1.4492 2.1719 3.3828 2.1719 5.7969zm-5.0312-1.625c0-0.92578-0.27344-1.6719-0.8125-2.2344-0.54297-0.57031-1.25-0.85938-2.125-0.85938-0.94922 0-1.7188 0.26562-2.3125 0.79688s-0.96484 1.2969-1.1094 2.2969z"></path>
      </symbol>
      <symbol id="l" overflow="visible">
        <path d="m9.2188-6.8906c-1.0234 0-1.793 0.17188-2.3125 0.51562-0.51172 0.34375-0.76562 0.85547-0.76562 1.5312 0 0.625 0.20703 1.1172 0.625 1.4688 0.41406 0.34375 0.98828 0.51562 1.7188 0.51562 0.92578 0 1.7031-0.32812 2.3281-0.98438 0.63281-0.66406 0.95312-1.4922 0.95312-2.4844v-0.5625zm7.4688-1.8438v8.7344h-4.9219v-2.2656c-0.65625 0.92969-1.3984 1.6055-2.2188 2.0312-0.82422 0.41406-1.8242 0.625-3 0.625-1.5859 0-2.8711-0.45703-3.8594-1.375-0.99219-0.92578-1.4844-2.1289-1.4844-3.6094 0-1.7891 0.61328-3.1016 1.8438-3.9375 1.2383-0.84375 3.1797-1.2656 5.8281-1.2656h2.8906v-0.39062c0-0.76953-0.30859-1.332-0.92188-1.6875-0.61719-0.36328-1.5703-0.54688-2.8594-0.54688-1.0547 0-2.0312 0.10547-2.9375 0.3125-0.89844 0.21094-1.7305 0.52344-2.5 0.9375v-3.7344c1.0391-0.25 2.0859-0.44141 3.1406-0.57812 1.0625-0.13281 2.125-0.20312 3.1875-0.20312 2.7578 0 4.75 0.54688 5.9688 1.6406 1.2266 1.0859 1.8438 2.8555 1.8438 5.3125z"></path>
      </symbol>
      <symbol id="b" overflow="visible">
        <path d="m7.7031-19.656v4.3438h5.0469v3.5h-5.0469v6.5c0 0.71094 0.14062 1.1875 0.42188 1.4375s0.83594 0.375 1.6719 0.375h2.5156v3.5h-4.1875c-1.9375 0-3.3125-0.39844-4.125-1.2031-0.80469-0.8125-1.2031-2.1797-1.2031-4.1094v-6.5h-2.4219v-3.5h2.4219v-4.3438z"></path>
      </symbol>
      <symbol id="k" overflow="visible">
        <path d="m12.766-13.078v-8.2031h4.9219v21.281h-4.9219v-2.2188c-0.66797 0.90625-1.4062 1.5703-2.2188 1.9844s-1.7578 0.625-2.8281 0.625c-1.8867 0-3.4336-0.75-4.6406-2.25-1.2109-1.5-1.8125-3.4258-1.8125-5.7812 0-2.3633 0.60156-4.2969 1.8125-5.7969 1.207-1.5 2.7539-2.25 4.6406-2.25 1.0625 0 2 0.21484 2.8125 0.64062 0.82031 0.42969 1.5664 1.0859 2.2344 1.9688zm-3.2188 9.9219c1.0391 0 1.8359-0.37891 2.3906-1.1406 0.55078-0.76953 0.82812-1.8828 0.82812-3.3438 0-1.457-0.27734-2.5664-0.82812-3.3281-0.55469-0.76953-1.3516-1.1562-2.3906-1.1562-1.043 0-1.8398 0.38672-2.3906 1.1562-0.55469 0.76172-0.82812 1.8711-0.82812 3.3281 0 1.4609 0.27344 2.5742 0.82812 3.3438 0.55078 0.76172 1.3477 1.1406 2.3906 1.1406z"></path>
      </symbol>
      <symbol id="j" overflow="visible">
        <path d="m10.5-3.1562c1.0508 0 1.8516-0.37891 2.4062-1.1406 0.55078-0.76953 0.82812-1.8828 0.82812-3.3438 0-1.457-0.27734-2.5664-0.82812-3.3281-0.55469-0.76953-1.3555-1.1562-2.4062-1.1562-1.0547 0-1.8594 0.38672-2.4219 1.1562-0.55469 0.77344-0.82812 1.8828-0.82812 3.3281 0 1.4492 0.27344 2.5586 0.82812 3.3281 0.5625 0.77344 1.3672 1.1562 2.4219 1.1562zm-3.25-9.9219c0.67578-0.88281 1.4219-1.5391 2.2344-1.9688 0.82031-0.42578 1.7656-0.64062 2.8281-0.64062 1.8945 0 3.4453 0.75 4.6562 2.25 1.207 1.5 1.8125 3.4336 1.8125 5.7969 0 2.3555-0.60547 4.2812-1.8125 5.7812-1.2109 1.5-2.7617 2.25-4.6562 2.25-1.0625 0-2.0078-0.21094-2.8281-0.625-0.8125-0.42578-1.5586-1.0859-2.2344-1.9844v2.2188h-4.8906v-21.281h4.8906z"></path>
      </symbol>
      <symbol id="i" overflow="visible">
        <path d="m0.34375-15.312h4.8906l4.125 10.391 3.5-10.391h4.8906l-6.4375 16.766c-0.64844 1.6953-1.4023 2.8828-2.2656 3.5625-0.86719 0.6875-2 1.0312-3.4062 1.0312h-2.8438v-3.2188h1.5312c0.83203 0 1.4375-0.13672 1.8125-0.40625 0.38281-0.26172 0.67969-0.73047 0.89062-1.4062l0.14062-0.42188z"></path>
      </symbol>
      <symbol id="h" overflow="visible">
        <path d="m2.5781-20.406h5.25v18.422c0 2.5391-0.69531 4.4414-2.0781 5.7031-1.375 1.2578-3.4609 1.8906-6.25 1.8906h-1.0781v-3.9844h0.82812c1.0938 0 1.9219-0.30859 2.4844-0.92188 0.5625-0.60547 0.84375-1.5 0.84375-2.6875z"></path>
      </symbol>
      <symbol id="c" overflow="visible">
        <path d="m9.6406-12.188c-1.0859 0-1.9141 0.39062-2.4844 1.1719-0.57422 0.78125-0.85938 1.9062-0.85938 3.375s0.28516 2.5938 0.85938 3.375c0.57031 0.77344 1.3984 1.1562 2.4844 1.1562 1.0625 0 1.875-0.38281 2.4375-1.1562 0.57031-0.78125 0.85938-1.9062 0.85938-3.375s-0.28906-2.5938-0.85938-3.375c-0.5625-0.78125-1.375-1.1719-2.4375-1.1719zm0-3.5c2.6328 0 4.6914 0.71484 6.1719 2.1406 1.4766 1.418 2.2188 3.3867 2.2188 5.9062 0 2.5117-0.74219 4.4805-2.2188 5.9062-1.4805 1.418-3.5391 2.125-6.1719 2.125-2.6484 0-4.7148-0.70703-6.2031-2.125-1.4922-1.4258-2.2344-3.3945-2.2344-5.9062 0-2.5195 0.74219-4.4883 2.2344-5.9062 1.4883-1.4258 3.5547-2.1406 6.2031-2.1406z"></path>
      </symbol>
      <symbol id="w" overflow="visible">
        <path d="m14.312-14.828v3.7188c-1.043-0.4375-2.0547-0.76562-3.0312-0.98438-0.98047-0.21875-1.9023-0.32812-2.7656-0.32812-0.92969 0-1.6211 0.11719-2.0781 0.34375-0.44922 0.23047-0.67188 0.58984-0.67188 1.0781 0 0.38672 0.17188 0.68359 0.51562 0.89062 0.34375 0.21094 0.95703 0.36719 1.8438 0.46875l0.85938 0.125c2.5078 0.32422 4.1953 0.85156 5.0625 1.5781 0.86328 0.73047 1.2969 1.8711 1.2969 3.4219 0 1.6367-0.60547 2.8672-1.8125 3.6875-1.1992 0.8125-2.9922 1.2188-5.375 1.2188-1.0234 0-2.0742-0.078125-3.1562-0.23438-1.0742-0.15625-2.1797-0.39453-3.3125-0.71875v-3.7188c0.96875 0.48047 1.9609 0.83984 2.9844 1.0781 1.0312 0.23047 2.0781 0.34375 3.1406 0.34375 0.95703 0 1.6758-0.12891 2.1562-0.39062 0.47656-0.26953 0.71875-0.66406 0.71875-1.1875 0-0.4375-0.16797-0.75781-0.5-0.96875-0.33594-0.21875-0.99609-0.38281-1.9844-0.5l-0.85938-0.10938c-2.1797-0.26953-3.7031-0.77344-4.5781-1.5156-0.875-0.73828-1.3125-1.8594-1.3125-3.3594 0-1.625 0.55078-2.8281 1.6562-3.6094 1.1133-0.78906 2.8203-1.1875 5.125-1.1875 0.89453 0 1.8359 0.074219 2.8281 0.21875 1 0.13672 2.082 0.35156 3.25 0.64062z"></path>
      </symbol>
      <symbol id="v" overflow="visible">
        <path d="m2.3594-15.312h4.8906v15.312h-4.8906zm0-5.9688h4.8906v4h-4.8906z"></path>
      </symbol>
      <symbol id="u" overflow="visible">
        <path d="m16.781-19.766v4.3125c-1.125-0.5-2.2266-0.875-3.2969-1.125-1.0625-0.25781-2.0703-0.39062-3.0156-0.39062-1.25 0-2.1797 0.17969-2.7812 0.53125-0.60547 0.34375-0.90625 0.88281-0.90625 1.6094 0 0.54297 0.20312 0.96875 0.60938 1.2812 0.40625 0.30469 1.1406 0.5625 2.2031 0.78125l2.25 0.45312c2.2695 0.44922 3.8789 1.1406 4.8281 2.0781 0.95703 0.92969 1.4375 2.2461 1.4375 3.9531 0 2.25-0.66797 3.9297-2 5.0312-1.3359 1.0938-3.3711 1.6406-6.1094 1.6406-1.3047 0-2.6055-0.125-3.9062-0.375-1.3047-0.23828-2.6055-0.59766-3.9062-1.0781v-4.4531c1.3008 0.69922 2.5625 1.2266 3.7812 1.5781 1.2188 0.34375 2.3906 0.51562 3.5156 0.51562 1.1562 0 2.0352-0.1875 2.6406-0.5625 0.61328-0.38281 0.92188-0.9375 0.92188-1.6562 0-0.63281-0.21094-1.125-0.625-1.4688-0.41797-0.34375-1.2461-0.65625-2.4844-0.9375l-2.0312-0.4375c-2.043-0.4375-3.5391-1.1328-4.4844-2.0938-0.9375-0.95703-1.4062-2.25-1.4062-3.875 0-2.0312 0.65625-3.5938 1.9688-4.6875s3.1953-1.6406 5.6562-1.6406c1.125 0 2.2734 0.085938 3.4531 0.25 1.1875 0.16797 2.4141 0.42188 3.6875 0.76562z"></path>
      </symbol>
      <symbol id="g" overflow="visible">
        <path d="m14.719-14.828v3.9844c-0.65625-0.45703-1.3242-0.79688-2-1.0156-0.66797-0.21875-1.3594-0.32812-2.0781-0.32812-1.3672 0-2.4336 0.40234-3.2031 1.2031-0.76172 0.79297-1.1406 1.9062-1.1406 3.3438 0 1.4297 0.37891 2.543 1.1406 3.3438 0.76953 0.79297 1.8359 1.1875 3.2031 1.1875 0.75781 0 1.4844-0.10938 2.1719-0.32812 0.6875-0.22656 1.3203-0.56641 1.9062-1.0156v4c-0.76172 0.28125-1.5391 0.48828-2.3281 0.625-0.78125 0.14453-1.5742 0.21875-2.375 0.21875-2.7617 0-4.9219-0.70703-6.4844-2.125-1.5547-1.4141-2.3281-3.3828-2.3281-5.9062 0-2.5312 0.77344-4.5039 2.3281-5.9219 1.5625-1.4141 3.7227-2.125 6.4844-2.125 0.80078 0 1.5938 0.074219 2.375 0.21875 0.78125 0.13672 1.5547 0.35156 2.3281 0.64062z"></path>
      </symbol>
      <symbol id="f" overflow="visible">
        <path d="m17.75-9.3281v9.3281h-4.9219v-7.1094c0-1.3438-0.03125-2.2656-0.09375-2.7656s-0.16797-0.86719-0.3125-1.1094c-0.1875-0.3125-0.44922-0.55469-0.78125-0.73438-0.32422-0.17578-0.69531-0.26562-1.1094-0.26562-1.0234 0-1.8242 0.39844-2.4062 1.1875-0.58594 0.78125-0.875 1.8711-0.875 3.2656v7.5312h-4.8906v-21.281h4.8906v8.2031c0.73828-0.88281 1.5195-1.5391 2.3438-1.9688 0.83203-0.42578 1.75-0.64062 2.75-0.64062 1.7695 0 3.1133 0.54688 4.0312 1.6406 0.91406 1.0859 1.375 2.6562 1.375 4.7188z"></path>
      </symbol>
      <symbol id="e" overflow="visible">
        <path d="m2.1875-5.9688v-9.3438h4.9219v1.5312c0 0.83594-0.007813 1.875-0.015625 3.125-0.011719 1.25-0.015625 2.0859-0.015625 2.5 0 1.2422 0.03125 2.1328 0.09375 2.6719 0.070313 0.54297 0.17969 0.93359 0.32812 1.1719 0.20703 0.32422 0.47266 0.57422 0.79688 0.75 0.32031 0.16797 0.69141 0.25 1.1094 0.25 1.0195 0 1.8203-0.39062 2.4062-1.1719 0.58203-0.78125 0.875-1.8672 0.875-3.2656v-7.5625h4.8906v15.312h-4.8906v-2.2188c-0.74219 0.89844-1.5234 1.5586-2.3438 1.9844-0.82422 0.41406-1.7344 0.625-2.7344 0.625-1.7617 0-3.1055-0.53906-4.0312-1.625-0.92969-1.082-1.3906-2.6602-1.3906-4.7344z"></path>
      </symbol>
      <symbol id="t" overflow="visible">
        <path d="m2.3594-21.281h4.8906v21.281h-4.8906z"></path>
      </symbol>
      <symbol id="s" overflow="visible">
        <path d="m1.5938-15.312h13.359v3.4219l-8.0625 8.3906h8.0625v3.5h-13.688v-3.4219l8.0625-8.3906h-7.7344z"></path>
      </symbol>
      <symbol id="r" overflow="visible">
        <path d="m12.422-21.281v3.2188h-2.7031c-0.6875 0-1.1719 0.125-1.4531 0.375-0.27344 0.25-0.40625 0.6875-0.40625 1.3125v1.0625h4.1875v3.5h-4.1875v11.812h-4.8906v-11.812h-2.4375v-3.5h2.4375v-1.0625c0-1.6641 0.46094-2.8984 1.3906-3.7031 0.92578-0.80078 2.3672-1.2031 4.3281-1.2031z"></path>
      </symbol>
      <symbol id="q" overflow="visible">
        <path d="m16.547-12.766c0.61328-0.94531 1.3477-1.6719 2.2031-2.1719 0.85156-0.5 1.7891-0.75 2.8125-0.75 1.7578 0 3.0977 0.54688 4.0156 1.6406 0.92578 1.0859 1.3906 2.6562 1.3906 4.7188v9.3281h-4.9219v-7.9844-0.35938c0.007813-0.13281 0.015625-0.32031 0.015625-0.5625 0-1.082-0.16406-1.8633-0.48438-2.3438-0.3125-0.48828-0.82422-0.73438-1.5312-0.73438-0.92969 0-1.6484 0.38672-2.1562 1.1562-0.51172 0.76172-0.77344 1.8672-0.78125 3.3125v7.5156h-4.9219v-7.9844c0-1.6953-0.14844-2.7852-0.4375-3.2656-0.29297-0.48828-0.8125-0.73438-1.5625-0.73438-0.9375 0-1.6641 0.38672-2.1719 1.1562-0.51172 0.76172-0.76562 1.8594-0.76562 3.2969v7.5312h-4.9219v-15.312h4.9219v2.2344c0.60156-0.86328 1.2891-1.5156 2.0625-1.9531 0.78125-0.4375 1.6406-0.65625 2.5781-0.65625 1.0625 0 2 0.25781 2.8125 0.76562 0.8125 0.51172 1.4258 1.2305 1.8438 2.1562z"></path>
      </symbol>
      <symbol id="p" overflow="visible">
        <path d="m2.5781-20.406h5.875l7.4219 14v-14h4.9844v20.406h-5.875l-7.4219-14v14h-4.9844z"></path>
      </symbol>
      <symbol id="o" overflow="visible">
        <path d="m17.75-9.3281v9.3281h-4.9219v-7.1406c0-1.3203-0.03125-2.2344-0.09375-2.7344s-0.16797-0.86719-0.3125-1.1094c-0.1875-0.3125-0.44922-0.55469-0.78125-0.73438-0.32422-0.17578-0.69531-0.26562-1.1094-0.26562-1.0234 0-1.8242 0.39844-2.4062 1.1875-0.58594 0.78125-0.875 1.8711-0.875 3.2656v7.5312h-4.8906v-15.312h4.8906v2.2344c0.73828-0.88281 1.5195-1.5391 2.3438-1.9688 0.83203-0.42578 1.75-0.64062 2.75-0.64062 1.7695 0 3.1133 0.54688 4.0312 1.6406 0.91406 1.0859 1.375 2.6562 1.375 4.7188z"></path>
      </symbol>
      <symbol id="n" overflow="visible">
        <path d="m2.5781-20.406h8.7344c2.5938 0 4.582 0.57812 5.9688 1.7344 1.3945 1.1484 2.0938 2.7891 2.0938 4.9219 0 2.1367-0.69922 3.7812-2.0938 4.9375-1.3867 1.1562-3.375 1.7344-5.9688 1.7344h-3.4844v7.0781h-5.25zm5.25 3.8125v5.7031h2.9219c1.0195 0 1.8047-0.25 2.3594-0.75 0.5625-0.5 0.84375-1.2031 0.84375-2.1094 0-0.91406-0.28125-1.6172-0.84375-2.1094-0.55469-0.48828-1.3398-0.73438-2.3594-0.73438z"></path>
      </symbol>
      <symbol id="m" overflow="visible">
        <path d="m2.3594-15.312h4.8906v15.031c0 2.0508-0.49609 3.6172-1.4844 4.7031-0.98047 1.082-2.4062 1.625-4.2812 1.625h-2.4219v-3.2188h0.85938c0.92578 0 1.5625-0.21094 1.9062-0.625 0.35156-0.41797 0.53125-1.2461 0.53125-2.4844zm0-5.9688h4.8906v4h-4.8906z"></path>
      </symbol>
    </defs>
    <g>
      <path d="m601.89 529.57c-1.3711-2.8516-32.809-67.895-68.789-103.2 4.2852-5.5156 6.7578-12.582 4.2383-20.984-3.0117-10.02-10.59-15.539-21.332-15.539-5.8516 0-10.602 1.6758-11.434 1.9883-0.55469 0.24219-2.7109 1.1875-6.082 2.6992-11.039-16.566-93.605-140.79-102.75-163.92-5.3047-13.422-9.25-36.953-13.074-59.711-3.207-19.105-6.5312-38.863-10.719-52.914-8.4609-28.422-32.367-81.859-62.141-81.191-8.5898 0.23047-12.652 4.1328-14.547 7.3711-6.3516 10.848 2.1211 28.824 12.145 47.852 1.1133 2.1094 2.1172 4.0273 2.9336 5.6562 3.2773 6.5625 6.8828 19.59 6.7969 25.145-4.4336-3.2422-11.219-15.047-16.777-24.723-6.8945-12.008-14.711-25.609-23.621-34.949-2.6133-2.7422-5.2812-5.6328-7.9648-8.5469-17.629-19.113-35.875-38.879-51.457-30.109-4.7695 2.6758-7.9336 6.6758-9.1562 11.57-2.4883 9.9609 3.8086 20.16 4.8555 21.738 0.42188 0.52734 42.027 53.246 54.395 77.816 0.48047 1.5977 0.16797 5.8008-0.55859 8.5352-4.1602-4.4141-10.684-10.281-18.805-17.59-14.242-12.812-33.738-30.352-50.98-49.785-15.863-17.875-29.973-26.176-41.938-24.625-7.8242 1.0039-12.82 6.0977-14.914 9.5312-4.6328 4.7109-6.9062 10.059-6.7578 15.898 0.26953 11.094 9.4062 24.129 28.75 41.027 25.07 21.902 63.102 61.461 65.715 72.336-3.1211-0.52734-11.621-4.6641-34.203-25.457l-1.5-1.3789c-4.6016-4.2188-60.91-46.078-81.633-34.234-7.0352 4.0273-11.094 11.117-11.145 19.453-0.089843 13.324 9.7539 27.426 25.668 36.793 4.9492 2.9102 11.949 6.7461 20.035 11.168 24.27 13.281 60.949 33.348 76.5 48.121 3.8516 3.6562 6.0078 6.2031 7.2227 7.8867-5.8086-0.73828-33.879-4.3945-50.406-7.6953-10.191-2.0391-34.719-5.5547-42.59 5.6562-3.7969 5.4141-3.0781 12.527 2.1289 21.129 25.082 41.434 113.93 32.066 126.67 30.477 20.934 8.875 81.543 101.64 115.91 159.85-2.5664 2.4883-4.8008 4.918-6.5195 7.2617-3.707 5.0625-6.1836 18.547-1.9922 26.809 2.4688 4.8711 6.8828 7.5547 12.422 7.5547 3.4141 0 7.1641-0.99609 11.457-3.0586 1.8984-0.91406 4.3281-2.1094 7.1289-3.5117 4.5938 6.2148 14.426 18.066 35.281 42.852 1.1094 1.3164 2.6953 1.9922 4.2969 1.9922 1.2695 0 2.5469-0.42969 3.6016-1.3086 2.3672-1.9883 2.6758-5.5234 0.68359-7.8906-13.027-15.484-27.25-32.648-33.691-40.789 34.613-17.684 98.117-51.25 103.64-54.168 2.4062-0.98438 5.2344-2.4766 8.0352-4.4258 34.719 33.859 66.551 99.707 66.875 100.39 0.96094 2 2.9609 3.1719 5.0508 3.1719 0.8125 0 1.6367-0.17187 2.418-0.55469 2.7891-1.3398 3.9648-4.6836 2.6211-7.4727zm-260.46-150.21c-54.09-81.297-69.441-86.012-74.484-87.566-0.77734-0.24219-1.5977-0.3125-2.4062-0.19141-0.93359 0.12891-94.281 12.449-116.95-25.004-3-4.957-3.2773-7.8438-2.543-8.8984 2.4922-3.5508 16.496-4.043 31.227-1.1094 18.805 3.7578 50.922 7.7969 52.191 7.9531 4.4805 0.62891 10.051-0.34766 12.293-4.9961 3.3359-6.9062-3.8789-15.125-11.387-22.254-16.609-15.773-52.578-35.461-78.848-49.824-7.957-4.3555-14.855-8.125-19.73-10.992-14.945-8.7969-20.203-20.086-20.16-27.082 0.015625-3.0391 0.98438-7.2109 5.5039-9.8008 10.359-5.9297 55.332 20.703 68.5 32.77l1.4844 1.3594c20.02 18.434 35.348 30.27 45.164 28.219 3.2578-0.6875 5.8125-2.8008 7.1836-5.9453 8.0078-18.344-65.762-83.074-68.906-85.82-16.348-14.285-24.734-25.344-24.922-32.867-0.074219-2.9453 1.1406-5.4609 3.9414-8.1602 0.40234-0.38672 0.79688-0.92578 1.0625-1.418 0.089844-0.15625 2.2305-3.9531 7.0664-4.4922 4.5234-0.51562 14.723 1.5352 31.965 20.965 17.664 19.902 37.438 37.688 51.871 50.68 8.4336 7.5898 15.098 13.586 18.828 17.68 6.1562 6.7422 11.602 3.8516 13.125 2.8008 6.6523-4.5703 7.4883-19.605 5.0352-24.5-12.992-25.867-54-77.816-55.418-79.566-1.1602-1.8086-4.2227-7.9961-3.0898-12.531 0.29688-1.1914 1.0117-2.9609 3.7695-4.5117 7.8867-4.4258 25.145 14.281 37.75 27.938 2.7266 2.957 5.4375 5.8906 8.0938 8.6797 7.9727 8.3672 15.434 21.348 22.012 32.801 8.9922 15.656 16.102 28.027 24.645 30.621 5.8281 1.7656 9.1328-1.2109 10.281-2.5703 8.1602-9.6641-5.0781-38.762-5.2266-39.047-0.84375-1.6953-1.8945-3.6836-3.0469-5.875-4.8203-9.1562-16.117-30.598-12.387-36.973 0.67188-1.1406 2.4141-1.7578 5.1758-1.8359 20.266-0.46484 41.965 42.488 51.117 73.199 3.9922 13.391 7.2539 32.801 10.398 51.57 3.9219 23.328 7.9688 47.449 13.707 61.969 9.4375 23.895 88.324 142.73 102.85 164.52-25.008 11.625-72.359 34.887-99.008 55.988-5.6992-9.5625-25.496-42.453-47.73-75.883zm171.02 48.812c-0.18359 0.074219-0.36328 0.15625-0.54688 0.25391-0.86328 0.45312-75.98 40.176-109.54 57.172-0.003907 0-0.003907 0-0.011719 0.003906-0.003907 0-0.003907 0.003907-0.003907 0.003907-4.6367 2.3477-8.4961 4.2734-11.234 5.5898-3.3711 1.6133-5.4609 1.9531-6.6133 1.9531-1.4336 0-1.9375-0.46484-2.4062-1.3789-2.1523-4.1445-0.41406-13.133 1.0195-15.164 20.91-28.527 124.9-74.031 125.61-74.352 0.035156-0.011718 3.3867-1.1914 7.2969-1.1914 5.7578 0 9.0273 2.3359 10.602 7.5703 1.8086 6.0195-1.4609 10.785-5.3086 14.105-0.0625 0.0625-0.14453 0.085938-0.20312 0.14453-0.015626 0.015626-0.015626 0.039063-0.035157 0.054688-3.8984 3.2734-8.2773 5.0859-8.6328 5.2344z"></path>
    </g>
  </symbol>
  <symbol version="1.1" xmlns="http://www.w3.org/2000/svg" xmlns:xlink="http://www.w3.org/1999/xlink" viewBox="0 0 700 700" id="rock">
    <defs>
      <symbol id="x" overflow="visible">
        <path d="m18.766-1.125c-0.96875 0.5-1.9805 0.875-3.0312 1.125-1.043 0.25781-2.1367 0.39062-3.2812 0.39062-3.3984 0-6.0898-0.94531-8.0781-2.8438-1.9922-1.9062-2.9844-4.4844-2.9844-7.7344 0-3.2578 0.99219-5.8359 2.9844-7.7344 1.9883-1.9062 4.6797-2.8594 8.0781-2.8594 1.1445 0 2.2383 0.13281 3.2812 0.39062 1.0508 0.25 2.0625 0.625 3.0312 1.125v4.2188c-0.98047-0.65625-1.9453-1.1406-2.8906-1.4531-0.94922-0.3125-1.9492-0.46875-3-0.46875-1.875 0-3.3516 0.60547-4.4219 1.8125-1.0742 1.1992-1.6094 2.8555-1.6094 4.9688 0 2.1055 0.53516 3.7617 1.6094 4.9688 1.0703 1.1992 2.5469 1.7969 4.4219 1.7969 1.0508 0 2.0508-0.14844 3-0.45312 0.94531-0.3125 1.9102-0.80078 2.8906-1.4688z"></path>
      </symbol>
      <symbol id="d" overflow="visible">
        <path d="m13.734-11.141c-0.4375-0.19531-0.87109-0.34375-1.2969-0.4375-0.41797-0.10156-0.83984-0.15625-1.2656-0.15625-1.2617 0-2.2305 0.40625-2.9062 1.2188-0.67969 0.80469-1.0156 1.9531-1.0156 3.4531v7.0625h-4.8906v-15.312h4.8906v2.5156c0.625-1 1.3438-1.7266 2.1562-2.1875 0.82031-0.46875 1.8008-0.70312 2.9375-0.70312 0.16406 0 0.34375 0.011719 0.53125 0.03125 0.19531 0.011719 0.47656 0.039062 0.84375 0.078125z"></path>
      </symbol>
      <symbol id="a" overflow="visible">
        <path d="m17.641-7.7031v1.4062h-11.453c0.125 1.1484 0.53906 2.0078 1.25 2.5781 0.70703 0.57422 1.7031 0.85938 2.9844 0.85938 1.0312 0 2.082-0.14844 3.1562-0.45312 1.082-0.3125 2.1914-0.77344 3.3281-1.3906v3.7656c-1.1562 0.4375-2.3125 0.76562-3.4688 0.98438-1.1562 0.22656-2.3125 0.34375-3.4688 0.34375-2.7734 0-4.9297-0.70312-6.4688-2.1094-1.5312-1.4062-2.2969-3.3789-2.2969-5.9219 0-2.5 0.75391-4.4609 2.2656-5.8906 1.5078-1.4375 3.582-2.1562 6.2188-2.1562 2.4062 0 4.332 0.73047 5.7812 2.1875 1.4453 1.4492 2.1719 3.3828 2.1719 5.7969zm-5.0312-1.625c0-0.92578-0.27344-1.6719-0.8125-2.2344-0.54297-0.57031-1.25-0.85938-2.125-0.85938-0.94922 0-1.7188 0.26562-2.3125 0.79688s-0.96484 1.2969-1.1094 2.2969z"></path>
      </symbol>
      <symbol id="l" overflow="visible">
        <path d="m9.2188-6.8906c-1.0234 0-1.793 0.17188-2.3125 0.51562-0.51172 0.34375-0.76562 0.85547-0.76562 1.5312 0 0.625 0.20703 1.1172 0.625 1.4688 0.41406 0.34375 0.98828 0.51562 1.7188 0.51562 0.92578 0 1.7031-0.32812 2.3281-0.98438 0.63281-0.66406 0.95312-1.4922 0.95312-2.4844v-0.5625zm7.4688-1.8438v8.7344h-4.9219v-2.2656c-0.65625 0.92969-1.3984 1.6055-2.2188 2.0312-0.82422 0.41406-1.8242 0.625-3 0.625-1.5859 0-2.8711-0.45703-3.8594-1.375-0.99219-0.92578-1.4844-2.1289-1.4844-3.6094 0-1.7891 0.61328-3.1016 1.8438-3.9375 1.2383-0.84375 3.1797-1.2656 5.8281-1.2656h2.8906v-0.39062c0-0.76953-0.30859-1.332-0.92188-1.6875-0.61719-0.36328-1.5703-0.54688-2.8594-0.54688-1.0547 0-2.0312 0.10547-2.9375 0.3125-0.89844 0.21094-1.7305 0.52344-2.5 0.9375v-3.7344c1.0391-0.25 2.0859-0.44141 3.1406-0.57812 1.0625-0.13281 2.125-0.20312 3.1875-0.20312 2.7578 0 4.75 0.54688 5.9688 1.6406 1.2266 1.0859 1.8438 2.8555 1.8438 5.3125z"></path>
      </symbol>
      <symbol id="b" overflow="visible">
        <path d="m7.7031-19.656v4.3438h5.0469v3.5h-5.0469v6.5c0 0.71094 0.14062 1.1875 0.42188 1.4375s0.83594 0.375 1.6719 0.375h2.5156v3.5h-4.1875c-1.9375 0-3.3125-0.39844-4.125-1.2031-0.80469-0.8125-1.2031-2.1797-1.2031-4.1094v-6.5h-2.4219v-3.5h2.4219v-4.3438z"></path>
      </symbol>
      <symbol id="k" overflow="visible">
        <path d="m12.766-13.078v-8.2031h4.9219v21.281h-4.9219v-2.2188c-0.66797 0.90625-1.4062 1.5703-2.2188 1.9844s-1.7578 0.625-2.8281 0.625c-1.8867 0-3.4336-0.75-4.6406-2.25-1.2109-1.5-1.8125-3.4258-1.8125-5.7812 0-2.3633 0.60156-4.2969 1.8125-5.7969 1.207-1.5 2.7539-2.25 4.6406-2.25 1.0625 0 2 0.21484 2.8125 0.64062 0.82031 0.42969 1.5664 1.0859 2.2344 1.9688zm-3.2188 9.9219c1.0391 0 1.8359-0.37891 2.3906-1.1406 0.55078-0.76953 0.82812-1.8828 0.82812-3.3438 0-1.457-0.27734-2.5664-0.82812-3.3281-0.55469-0.76953-1.3516-1.1562-2.3906-1.1562-1.043 0-1.8398 0.38672-2.3906 1.1562-0.55469 0.76172-0.82812 1.8711-0.82812 3.3281 0 1.4609 0.27344 2.5742 0.82812 3.3438 0.55078 0.76172 1.3477 1.1406 2.3906 1.1406z"></path>
      </symbol>
      <symbol id="j" overflow="visible">
        <path d="m10.5-3.1562c1.0508 0 1.8516-0.37891 2.4062-1.1406 0.55078-0.76953 0.82812-1.8828 0.82812-3.3438 0-1.457-0.27734-2.5664-0.82812-3.3281-0.55469-0.76953-1.3555-1.1562-2.4062-1.1562-1.0547 0-1.8594 0.38672-2.4219 1.1562-0.55469 0.77344-0.82812 1.8828-0.82812 3.3281 0 1.4492 0.27344 2.5586 0.82812 3.3281 0.5625 0.77344 1.3672 1.1562 2.4219 1.1562zm-3.25-9.9219c0.67578-0.88281 1.4219-1.5391 2.2344-1.9688 0.82031-0.42578 1.7656-0.64062 2.8281-0.64062 1.8945 0 3.4453 0.75 4.6562 2.25 1.207 1.5 1.8125 3.4336 1.8125 5.7969 0 2.3555-0.60547 4.2812-1.8125 5.7812-1.2109 1.5-2.7617 2.25-4.6562 2.25-1.0625 0-2.0078-0.21094-2.8281-0.625-0.8125-0.42578-1.5586-1.0859-2.2344-1.9844v2.2188h-4.8906v-21.281h4.8906z"></path>
      </symbol>
      <symbol id="i" overflow="visible">
        <path d="m0.34375-15.312h4.8906l4.125 10.391 3.5-10.391h4.8906l-6.4375 16.766c-0.64844 1.6953-1.4023 2.8828-2.2656 3.5625-0.86719 0.6875-2 1.0312-3.4062 1.0312h-2.8438v-3.2188h1.5312c0.83203 0 1.4375-0.13672 1.8125-0.40625 0.38281-0.26172 0.67969-0.73047 0.89062-1.4062l0.14062-0.42188z"></path>
      </symbol>
      <symbol id="h" overflow="visible">
        <path d="m2.5781-20.406h5.25v18.422c0 2.5391-0.69531 4.4414-2.0781 5.7031-1.375 1.2578-3.4609 1.8906-6.25 1.8906h-1.0781v-3.9844h0.82812c1.0938 0 1.9219-0.30859 2.4844-0.92188 0.5625-0.60547 0.84375-1.5 0.84375-2.6875z"></path>
      </symbol>
      <symbol id="c" overflow="visible">
        <path d="m9.6406-12.188c-1.0859 0-1.9141 0.39062-2.4844 1.1719-0.57422 0.78125-0.85938 1.9062-0.85938 3.375s0.28516 2.5938 0.85938 3.375c0.57031 0.77344 1.3984 1.1562 2.4844 1.1562 1.0625 0 1.875-0.38281 2.4375-1.1562 0.57031-0.78125 0.85938-1.9062 0.85938-3.375s-0.28906-2.5938-0.85938-3.375c-0.5625-0.78125-1.375-1.1719-2.4375-1.1719zm0-3.5c2.6328 0 4.6914 0.71484 6.1719 2.1406 1.4766 1.418 2.2188 3.3867 2.2188 5.9062 0 2.5117-0.74219 4.4805-2.2188 5.9062-1.4805 1.418-3.5391 2.125-6.1719 2.125-2.6484 0-4.7148-0.70703-6.2031-2.125-1.4922-1.4258-2.2344-3.3945-2.2344-5.9062 0-2.5195 0.74219-4.4883 2.2344-5.9062 1.4883-1.4258 3.5547-2.1406 6.2031-2.1406z"></path>
      </symbol>
      <symbol id="w" overflow="visible">
        <path d="m14.312-14.828v3.7188c-1.043-0.4375-2.0547-0.76562-3.0312-0.98438-0.98047-0.21875-1.9023-0.32812-2.7656-0.32812-0.92969 0-1.6211 0.11719-2.0781 0.34375-0.44922 0.23047-0.67188 0.58984-0.67188 1.0781 0 0.38672 0.17188 0.68359 0.51562 0.89062 0.34375 0.21094 0.95703 0.36719 1.8438 0.46875l0.85938 0.125c2.5078 0.32422 4.1953 0.85156 5.0625 1.5781 0.86328 0.73047 1.2969 1.8711 1.2969 3.4219 0 1.6367-0.60547 2.8672-1.8125 3.6875-1.1992 0.8125-2.9922 1.2188-5.375 1.2188-1.0234 0-2.0742-0.078125-3.1562-0.23438-1.0742-0.15625-2.1797-0.39453-3.3125-0.71875v-3.7188c0.96875 0.48047 1.9609 0.83984 2.9844 1.0781 1.0312 0.23047 2.0781 0.34375 3.1406 0.34375 0.95703 0 1.6758-0.12891 2.1562-0.39062 0.47656-0.26953 0.71875-0.66406 0.71875-1.1875 0-0.4375-0.16797-0.75781-0.5-0.96875-0.33594-0.21875-0.99609-0.38281-1.9844-0.5l-0.85938-0.10938c-2.1797-0.26953-3.7031-0.77344-4.5781-1.5156-0.875-0.73828-1.3125-1.8594-1.3125-3.3594 0-1.625 0.55078-2.8281 1.6562-3.6094 1.1133-0.78906 2.8203-1.1875 5.125-1.1875 0.89453 0 1.8359 0.074219 2.8281 0.21875 1 0.13672 2.082 0.35156 3.25 0.64062z"></path>
      </symbol>
      <symbol id="v" overflow="visible">
        <path d="m2.3594-15.312h4.8906v15.312h-4.8906zm0-5.9688h4.8906v4h-4.8906z"></path>
      </symbol>
      <symbol id="u" overflow="visible">
        <path d="m16.781-19.766v4.3125c-1.125-0.5-2.2266-0.875-3.2969-1.125-1.0625-0.25781-2.0703-0.39062-3.0156-0.39062-1.25 0-2.1797 0.17969-2.7812 0.53125-0.60547 0.34375-0.90625 0.88281-0.90625 1.6094 0 0.54297 0.20312 0.96875 0.60938 1.2812 0.40625 0.30469 1.1406 0.5625 2.2031 0.78125l2.25 0.45312c2.2695 0.44922 3.8789 1.1406 4.8281 2.0781 0.95703 0.92969 1.4375 2.2461 1.4375 3.9531 0 2.25-0.66797 3.9297-2 5.0312-1.3359 1.0938-3.3711 1.6406-6.1094 1.6406-1.3047 0-2.6055-0.125-3.9062-0.375-1.3047-0.23828-2.6055-0.59766-3.9062-1.0781v-4.4531c1.3008 0.69922 2.5625 1.2266 3.7812 1.5781 1.2188 0.34375 2.3906 0.51562 3.5156 0.51562 1.1562 0 2.0352-0.1875 2.6406-0.5625 0.61328-0.38281 0.92188-0.9375 0.92188-1.6562 0-0.63281-0.21094-1.125-0.625-1.4688-0.41797-0.34375-1.2461-0.65625-2.4844-0.9375l-2.0312-0.4375c-2.043-0.4375-3.5391-1.1328-4.4844-2.0938-0.9375-0.95703-1.4062-2.25-1.4062-3.875 0-2.0312 0.65625-3.5938 1.9688-4.6875s3.1953-1.6406 5.6562-1.6406c1.125 0 2.2734 0.085938 3.4531 0.25 1.1875 0.16797 2.4141 0.42188 3.6875 0.76562z"></path>
      </symbol>
      <symbol id="g" overflow="visible">
        <path d="m14.719-14.828v3.9844c-0.65625-0.45703-1.3242-0.79688-2-1.0156-0.66797-0.21875-1.3594-0.32812-2.0781-0.32812-1.3672 0-2.4336 0.40234-3.2031 1.2031-0.76172 0.79297-1.1406 1.9062-1.1406 3.3438 0 1.4297 0.37891 2.543 1.1406 3.3438 0.76953 0.79297 1.8359 1.1875 3.2031 1.1875 0.75781 0 1.4844-0.10938 2.1719-0.32812 0.6875-0.22656 1.3203-0.56641 1.9062-1.0156v4c-0.76172 0.28125-1.5391 0.48828-2.3281 0.625-0.78125 0.14453-1.5742 0.21875-2.375 0.21875-2.7617 0-4.9219-0.70703-6.4844-2.125-1.5547-1.4141-2.3281-3.3828-2.3281-5.9062 0-2.5312 0.77344-4.5039 2.3281-5.9219 1.5625-1.4141 3.7227-2.125 6.4844-2.125 0.80078 0 1.5938 0.074219 2.375 0.21875 0.78125 0.13672 1.5547 0.35156 2.3281 0.64062z"></path>
      </symbol>
      <symbol id="f" overflow="visible">
        <path d="m17.75-9.3281v9.3281h-4.9219v-7.1094c0-1.3438-0.03125-2.2656-0.09375-2.7656s-0.16797-0.86719-0.3125-1.1094c-0.1875-0.3125-0.44922-0.55469-0.78125-0.73438-0.32422-0.17578-0.69531-0.26562-1.1094-0.26562-1.0234 0-1.8242 0.39844-2.4062 1.1875-0.58594 0.78125-0.875 1.8711-0.875 3.2656v7.5312h-4.8906v-21.281h4.8906v8.2031c0.73828-0.88281 1.5195-1.5391 2.3438-1.9688 0.83203-0.42578 1.75-0.64062 2.75-0.64062 1.7695 0 3.1133 0.54688 4.0312 1.6406 0.91406 1.0859 1.375 2.6562 1.375 4.7188z"></path>
      </symbol>
      <symbol id="e" overflow="visible">
        <path d="m2.1875-5.9688v-9.3438h4.9219v1.5312c0 0.83594-0.007813 1.875-0.015625 3.125-0.011719 1.25-0.015625 2.0859-0.015625 2.5 0 1.2422 0.03125 2.1328 0.09375 2.6719 0.070313 0.54297 0.17969 0.93359 0.32812 1.1719 0.20703 0.32422 0.47266 0.57422 0.79688 0.75 0.32031 0.16797 0.69141 0.25 1.1094 0.25 1.0195 0 1.8203-0.39062 2.4062-1.1719 0.58203-0.78125 0.875-1.8672 0.875-3.2656v-7.5625h4.8906v15.312h-4.8906v-2.2188c-0.74219 0.89844-1.5234 1.5586-2.3438 1.9844-0.82422 0.41406-1.7344 0.625-2.7344 0.625-1.7617 0-3.1055-0.53906-4.0312-1.625-0.92969-1.082-1.3906-2.6602-1.3906-4.7344z"></path>
      </symbol>
      <symbol id="t" overflow="visible">
        <path d="m2.3594-21.281h4.8906v21.281h-4.8906z"></path>
      </symbol>
      <symbol id="s" overflow="visible">
        <path d="m1.5938-15.312h13.359v3.4219l-8.0625 8.3906h8.0625v3.5h-13.688v-3.4219l8.0625-8.3906h-7.7344z"></path>
      </symbol>
      <symbol id="r" overflow="visible">
        <path d="m12.422-21.281v3.2188h-2.7031c-0.6875 0-1.1719 0.125-1.4531 0.375-0.27344 0.25-0.40625 0.6875-0.40625 1.3125v1.0625h4.1875v3.5h-4.1875v11.812h-4.8906v-11.812h-2.4375v-3.5h2.4375v-1.0625c0-1.6641 0.46094-2.8984 1.3906-3.7031 0.92578-0.80078 2.3672-1.2031 4.3281-1.2031z"></path>
      </symbol>
      <symbol id="q" overflow="visible">
        <path d="m16.547-12.766c0.61328-0.94531 1.3477-1.6719 2.2031-2.1719 0.85156-0.5 1.7891-0.75 2.8125-0.75 1.7578 0 3.0977 0.54688 4.0156 1.6406 0.92578 1.0859 1.3906 2.6562 1.3906 4.7188v9.3281h-4.9219v-7.9844-0.35938c0.007813-0.13281 0.015625-0.32031 0.015625-0.5625 0-1.082-0.16406-1.8633-0.48438-2.3438-0.3125-0.48828-0.82422-0.73438-1.5312-0.73438-0.92969 0-1.6484 0.38672-2.1562 1.1562-0.51172 0.76172-0.77344 1.8672-0.78125 3.3125v7.5156h-4.9219v-7.9844c0-1.6953-0.14844-2.7852-0.4375-3.2656-0.29297-0.48828-0.8125-0.73438-1.5625-0.73438-0.9375 0-1.6641 0.38672-2.1719 1.1562-0.51172 0.76172-0.76562 1.8594-0.76562 3.2969v7.5312h-4.9219v-15.312h4.9219v2.2344c0.60156-0.86328 1.2891-1.5156 2.0625-1.9531 0.78125-0.4375 1.6406-0.65625 2.5781-0.65625 1.0625 0 2 0.25781 2.8125 0.76562 0.8125 0.51172 1.4258 1.2305 1.8438 2.1562z"></path>
      </symbol>
      <symbol id="p" overflow="visible">
        <path d="m2.5781-20.406h5.875l7.4219 14v-14h4.9844v20.406h-5.875l-7.4219-14v14h-4.9844z"></path>
      </symbol>
      <symbol id="o" overflow="visible">
        <path d="m17.75-9.3281v9.3281h-4.9219v-7.1406c0-1.3203-0.03125-2.2344-0.09375-2.7344s-0.16797-0.86719-0.3125-1.1094c-0.1875-0.3125-0.44922-0.55469-0.78125-0.73438-0.32422-0.17578-0.69531-0.26562-1.1094-0.26562-1.0234 0-1.8242 0.39844-2.4062 1.1875-0.58594 0.78125-0.875 1.8711-0.875 3.2656v7.5312h-4.8906v-15.312h4.8906v2.2344c0.73828-0.88281 1.5195-1.5391 2.3438-1.9688 0.83203-0.42578 1.75-0.64062 2.75-0.64062 1.7695 0 3.1133 0.54688 4.0312 1.6406 0.91406 1.0859 1.375 2.6562 1.375 4.7188z"></path>
      </symbol>
      <symbol id="n" overflow="visible">
        <path d="m2.5781-20.406h8.7344c2.5938 0 4.582 0.57812 5.9688 1.7344 1.3945 1.1484 2.0938 2.7891 2.0938 4.9219 0 2.1367-0.69922 3.7812-2.0938 4.9375-1.3867 1.1562-3.375 1.7344-5.9688 1.7344h-3.4844v7.0781h-5.25zm5.25 3.8125v5.7031h2.9219c1.0195 0 1.8047-0.25 2.3594-0.75 0.5625-0.5 0.84375-1.2031 0.84375-2.1094 0-0.91406-0.28125-1.6172-0.84375-2.1094-0.55469-0.48828-1.3398-0.73438-2.3594-0.73438z"></path>
      </symbol>
      <symbol id="m" overflow="visible">
        <path d="m2.3594-15.312h4.8906v15.031c0 2.0508-0.49609 3.6172-1.4844 4.7031-0.98047 1.082-2.4062 1.625-4.2812 1.625h-2.4219v-3.2188h0.85938c0.92578 0 1.5625-0.21094 1.9062-0.625 0.35156-0.41797 0.53125-1.2461 0.53125-2.4844zm0-5.9688h4.8906v4h-4.8906z"></path>
      </symbol>
    </defs>
    <g>
      <path d="m602.36 442.16c-0.24219-0.30078-23.961-30.645-35.648-51.777-5.707-10.309-12.039-15.562-18.172-20.652-7.3477-6.0938-14.293-11.844-20.066-27.391-0.15625-0.42578-0.44922-0.75-0.6875-1.1094 0.84375-4.457 1.2109-8.418 0.92969-11.66-1.6367-18.906-14.391-20.945-19.801-20.945-8.0977 0-15.566 3.875-16.391 4.3164-0.87891 0.47656-1.6172 1.1719-2.1406 2.0234l-5.8008 9.5156c-90.098-58.203-151.71-113.49-178.31-160.14-1.0078-16.504-8.3711-113.39-42.656-128.54-8.4336-3.7188-17.484-2.4688-26.953 3.625-7.5312-10.832-20.238-23.27-36.781-17.719-6.1562 2.0664-10.812 6.1992-13.469 11.961-3.5039 7.5938-3.1523 16.895-1.7969 24.605-8.7461-3.5273-19.875-4.0547-30.801 4.7109-11.621 9.3242-10.516 23.102-6.4609 34.609-2.5742-1.3594-4.9961-2.375-6.9766-2.7422-8.4492-1.5898-21.055 2.4414-27.73 13.016-3.7578 5.9453-7.7461 17.562 0.30078 35.168-3.1484-0.46484-6.1719-0.19531-8.6055 1.3555-7.2461 4.5977-12.207 13.289-13.273 23.258-1.4297 13.395 4.25 27.137 15.992 38.707 31.871 31.387 65.555 60.906 126.63 77.211 12.75 9.8438 156.09 120.63 185.29 146.87-5.3477 6.4727-13.895 18.91-11.289 29.836 1.0547 4.4258 4.3789 10.387 14.23 13.707 7.1445 2.4141 13.176 3.5859 18.414 3.5859 2.6562 0 5-0.37891 7.2305-0.92578 11.008 1.25 38.395 7.2578 45.543 21.75 10.719 21.75 32.047 39.047 32.957 39.77 1.0352 0.82812 2.2695 1.2383 3.5 1.2383 1.6406 0 3.2656-0.71875 4.3672-2.0938 1.9375-2.4062 1.5508-5.9375-0.85547-7.8672-0.19531-0.16406-20.281-16.441-29.926-35.996-7.375-14.953-27.137-22.148-40.941-25.457 3.4336-3.4258 6.6367-7.5547 10.109-12.039l1.6562-2.1406c10.406-13.379 37.543-61.293 49.285-96.008 5.7617 10.289 12.242 15.68 18.129 20.562 5.5781 4.625 10.848 8.9922 15.523 17.457 12.125 21.918 35.637 51.996 36.637 53.266 1.1016 1.4062 2.75 2.1445 4.4141 2.1445 1.2109 0 2.4258-0.38672 3.4492-1.1914 2.4297-1.9258 2.8555-5.4414 0.94531-7.8789zm-364.72-169.14c-59.113-15.547-91.777-44.18-122.72-74.652-9.2617-9.1172-13.777-19.605-12.719-29.535 0.82812-7.7734 4.7422-12.836 7.7734-14.816 1.8867-0.39063 8.3594 2.1797 13.383 5.332 2.2773 1.4297 5.2461 1.0352 7.0742-0.92578 1.832-1.9648 2.0117-4.9453 0.4375-7.1172-11.195-15.371-14.301-28.672-8.7539-37.457 3.8398-6.0742 11.395-8.8828 16.211-7.9805 3.3984 0.63281 13.664 7.6055 21.223 13.699 2.1992 1.7734 5.3828 1.6367 7.4141-0.33594 2.0312-1.9727 2.2734-5.1406 0.57031-7.3984-0.21094-0.28125-20.996-28.629-6.7031-40.102 14.312-11.504 27.652 1.8438 29.113 3.3828 1.8359 1.9805 4.8203 2.3594 7.0938 0.91797 2.2773-1.4453 3.2031-4.3047 2.207-6.8086-2.1797-5.4648-6.9062-21.672-2.6484-30.863 1.3945-3.0078 3.5742-4.9219 6.8594-6.0312 11.52-3.8711 21.48 9.0391 26.719 17.77l19.656 53.523c1.0703 2.9062 4.2891 4.4062 7.1836 3.3281 2.9062-1.0625 4.3906-4.2852 3.3281-7.1836l-15.793-42.996c0.33203-1.1797 0.36328-2.457-0.15625-3.6797-0.125-0.30469-0.78906-1.8398-1.9336-4.0586 6.2734-4.1172 11.754-5.1406 16.637-2.9805 24.684 10.902 34.41 90.484 36.074 120.23 0.050781 0.85156 0.29297 1.6797 0.70703 2.4258 27.559 49.207 89.125 104.83 182.88 165.35l-53.184 87.254c-33.492-29.641-179.34-142.21-185.94-147.3-0.58594-0.46094-1.2695-0.79688-1.9922-0.98828zm227.5 173.89-1.6758 2.1602c-9.2734 11.988-13.77 17.289-23.129 17.289-4.0039 0-8.8594-0.98047-14.836-2.9922-6.0312-2.0312-6.6914-4.7891-6.9062-5.6953-1.6367-6.8281 7.5039-18.895 12.188-23.672 0.30078-0.30859 0.57031-0.64453 0.78906-1.0117l59.504-97.629c0.003906-0.003907 0.011719-0.011719 0.015625-0.015626 0.003906-0.003906 0.003906-0.011718 0.003906-0.015624l7.9844-13.105c1.9805-0.86719 5.9805-2.3906 9.832-2.3906 2.5039 0 7.7188 0 8.6445 10.711 2.0703 23.723-39.047 99.172-52.414 116.37z"></path>
    </g>
  </symbol>
  <symbol version="1.1" xmlns="http://www.w3.org/2000/svg" xmlns:xlink="http://www.w3.org/1999/xlink" viewBox="0 0 700 700" id="scissors">
    <defs>
      <symbol id="x" overflow="visible">
        <path d="m18.766-1.125c-0.96875 0.5-1.9805 0.875-3.0312 1.125-1.043 0.25781-2.1367 0.39062-3.2812 0.39062-3.3984 0-6.0898-0.94531-8.0781-2.8438-1.9922-1.9062-2.9844-4.4844-2.9844-7.7344 0-3.2578 0.99219-5.8359 2.9844-7.7344 1.9883-1.9062 4.6797-2.8594 8.0781-2.8594 1.1445 0 2.2383 0.13281 3.2812 0.39062 1.0508 0.25 2.0625 0.625 3.0312 1.125v4.2188c-0.98047-0.65625-1.9453-1.1406-2.8906-1.4531-0.94922-0.3125-1.9492-0.46875-3-0.46875-1.875 0-3.3516 0.60547-4.4219 1.8125-1.0742 1.1992-1.6094 2.8555-1.6094 4.9688 0 2.1055 0.53516 3.7617 1.6094 4.9688 1.0703 1.1992 2.5469 1.7969 4.4219 1.7969 1.0508 0 2.0508-0.14844 3-0.45312 0.94531-0.3125 1.9102-0.80078 2.8906-1.4688z"></path>
      </symbol>
      <symbol id="d" overflow="visible">
        <path d="m13.734-11.141c-0.4375-0.19531-0.87109-0.34375-1.2969-0.4375-0.41797-0.10156-0.83984-0.15625-1.2656-0.15625-1.2617 0-2.2305 0.40625-2.9062 1.2188-0.67969 0.80469-1.0156 1.9531-1.0156 3.4531v7.0625h-4.8906v-15.312h4.8906v2.5156c0.625-1 1.3438-1.7266 2.1562-2.1875 0.82031-0.46875 1.8008-0.70312 2.9375-0.70312 0.16406 0 0.34375 0.011719 0.53125 0.03125 0.19531 0.011719 0.47656 0.039062 0.84375 0.078125z"></path>
      </symbol>
      <symbol id="a" overflow="visible">
        <path d="m17.641-7.7031v1.4062h-11.453c0.125 1.1484 0.53906 2.0078 1.25 2.5781 0.70703 0.57422 1.7031 0.85938 2.9844 0.85938 1.0312 0 2.082-0.14844 3.1562-0.45312 1.082-0.3125 2.1914-0.77344 3.3281-1.3906v3.7656c-1.1562 0.4375-2.3125 0.76562-3.4688 0.98438-1.1562 0.22656-2.3125 0.34375-3.4688 0.34375-2.7734 0-4.9297-0.70312-6.4688-2.1094-1.5312-1.4062-2.2969-3.3789-2.2969-5.9219 0-2.5 0.75391-4.4609 2.2656-5.8906 1.5078-1.4375 3.582-2.1562 6.2188-2.1562 2.4062 0 4.332 0.73047 5.7812 2.1875 1.4453 1.4492 2.1719 3.3828 2.1719 5.7969zm-5.0312-1.625c0-0.92578-0.27344-1.6719-0.8125-2.2344-0.54297-0.57031-1.25-0.85938-2.125-0.85938-0.94922 0-1.7188 0.26562-2.3125 0.79688s-0.96484 1.2969-1.1094 2.2969z"></path>
      </symbol>
      <symbol id="l" overflow="visible">
        <path d="m9.2188-6.8906c-1.0234 0-1.793 0.17188-2.3125 0.51562-0.51172 0.34375-0.76562 0.85547-0.76562 1.5312 0 0.625 0.20703 1.1172 0.625 1.4688 0.41406 0.34375 0.98828 0.51562 1.7188 0.51562 0.92578 0 1.7031-0.32812 2.3281-0.98438 0.63281-0.66406 0.95312-1.4922 0.95312-2.4844v-0.5625zm7.4688-1.8438v8.7344h-4.9219v-2.2656c-0.65625 0.92969-1.3984 1.6055-2.2188 2.0312-0.82422 0.41406-1.8242 0.625-3 0.625-1.5859 0-2.8711-0.45703-3.8594-1.375-0.99219-0.92578-1.4844-2.1289-1.4844-3.6094 0-1.7891 0.61328-3.1016 1.8438-3.9375 1.2383-0.84375 3.1797-1.2656 5.8281-1.2656h2.8906v-0.39062c0-0.76953-0.30859-1.332-0.92188-1.6875-0.61719-0.36328-1.5703-0.54688-2.8594-0.54688-1.0547 0-2.0312 0.10547-2.9375 0.3125-0.89844 0.21094-1.7305 0.52344-2.5 0.9375v-3.7344c1.0391-0.25 2.0859-0.44141 3.1406-0.57812 1.0625-0.13281 2.125-0.20312 3.1875-0.20312 2.7578 0 4.75 0.54688 5.9688 1.6406 1.2266 1.0859 1.8438 2.8555 1.8438 5.3125z"></path>
      </symbol>
      <symbol id="b" overflow="visible">
        <path d="m7.7031-19.656v4.3438h5.0469v3.5h-5.0469v6.5c0 0.71094 0.14062 1.1875 0.42188 1.4375s0.83594 0.375 1.6719 0.375h2.5156v3.5h-4.1875c-1.9375 0-3.3125-0.39844-4.125-1.2031-0.80469-0.8125-1.2031-2.1797-1.2031-4.1094v-6.5h-2.4219v-3.5h2.4219v-4.3438z"></path>
      </symbol>
      <symbol id="k" overflow="visible">
        <path d="m12.766-13.078v-8.2031h4.9219v21.281h-4.9219v-2.2188c-0.66797 0.90625-1.4062 1.5703-2.2188 1.9844s-1.7578 0.625-2.8281 0.625c-1.8867 0-3.4336-0.75-4.6406-2.25-1.2109-1.5-1.8125-3.4258-1.8125-5.7812 0-2.3633 0.60156-4.2969 1.8125-5.7969 1.207-1.5 2.7539-2.25 4.6406-2.25 1.0625 0 2 0.21484 2.8125 0.64062 0.82031 0.42969 1.5664 1.0859 2.2344 1.9688zm-3.2188 9.9219c1.0391 0 1.8359-0.37891 2.3906-1.1406 0.55078-0.76953 0.82812-1.8828 0.82812-3.3438 0-1.457-0.27734-2.5664-0.82812-3.3281-0.55469-0.76953-1.3516-1.1562-2.3906-1.1562-1.043 0-1.8398 0.38672-2.3906 1.1562-0.55469 0.76172-0.82812 1.8711-0.82812 3.3281 0 1.4609 0.27344 2.5742 0.82812 3.3438 0.55078 0.76172 1.3477 1.1406 2.3906 1.1406z"></path>
      </symbol>
      <symbol id="j" overflow="visible">
        <path d="m10.5-3.1562c1.0508 0 1.8516-0.37891 2.4062-1.1406 0.55078-0.76953 0.82812-1.8828 0.82812-3.3438 0-1.457-0.27734-2.5664-0.82812-3.3281-0.55469-0.76953-1.3555-1.1562-2.4062-1.1562-1.0547 0-1.8594 0.38672-2.4219 1.1562-0.55469 0.77344-0.82812 1.8828-0.82812 3.3281 0 1.4492 0.27344 2.5586 0.82812 3.3281 0.5625 0.77344 1.3672 1.1562 2.4219 1.1562zm-3.25-9.9219c0.67578-0.88281 1.4219-1.5391 2.2344-1.9688 0.82031-0.42578 1.7656-0.64062 2.8281-0.64062 1.8945 0 3.4453 0.75 4.6562 2.25 1.207 1.5 1.8125 3.4336 1.8125 5.7969 0 2.3555-0.60547 4.2812-1.8125 5.7812-1.2109 1.5-2.7617 2.25-4.6562 2.25-1.0625 0-2.0078-0.21094-2.8281-0.625-0.8125-0.42578-1.5586-1.0859-2.2344-1.9844v2.2188h-4.8906v-21.281h4.8906z"></path>
      </symbol>
      <symbol id="i" overflow="visible">
        <path d="m0.34375-15.312h4.8906l4.125 10.391 3.5-10.391h4.8906l-6.4375 16.766c-0.64844 1.6953-1.4023 2.8828-2.2656 3.5625-0.86719 0.6875-2 1.0312-3.4062 1.0312h-2.8438v-3.2188h1.5312c0.83203 0 1.4375-0.13672 1.8125-0.40625 0.38281-0.26172 0.67969-0.73047 0.89062-1.4062l0.14062-0.42188z"></path>
      </symbol>
      <symbol id="h" overflow="visible">
        <path d="m2.5781-20.406h5.25v18.422c0 2.5391-0.69531 4.4414-2.0781 5.7031-1.375 1.2578-3.4609 1.8906-6.25 1.8906h-1.0781v-3.9844h0.82812c1.0938 0 1.9219-0.30859 2.4844-0.92188 0.5625-0.60547 0.84375-1.5 0.84375-2.6875z"></path>
      </symbol>
      <symbol id="c" overflow="visible">
        <path d="m9.6406-12.188c-1.0859 0-1.9141 0.39062-2.4844 1.1719-0.57422 0.78125-0.85938 1.9062-0.85938 3.375s0.28516 2.5938 0.85938 3.375c0.57031 0.77344 1.3984 1.1562 2.4844 1.1562 1.0625 0 1.875-0.38281 2.4375-1.1562 0.57031-0.78125 0.85938-1.9062 0.85938-3.375s-0.28906-2.5938-0.85938-3.375c-0.5625-0.78125-1.375-1.1719-2.4375-1.1719zm0-3.5c2.6328 0 4.6914 0.71484 6.1719 2.1406 1.4766 1.418 2.2188 3.3867 2.2188 5.9062 0 2.5117-0.74219 4.4805-2.2188 5.9062-1.4805 1.418-3.5391 2.125-6.1719 2.125-2.6484 0-4.7148-0.70703-6.2031-2.125-1.4922-1.4258-2.2344-3.3945-2.2344-5.9062 0-2.5195 0.74219-4.4883 2.2344-5.9062 1.4883-1.4258 3.5547-2.1406 6.2031-2.1406z"></path>
      </symbol>
      <symbol id="w" overflow="visible">
        <path d="m14.312-14.828v3.7188c-1.043-0.4375-2.0547-0.76562-3.0312-0.98438-0.98047-0.21875-1.9023-0.32812-2.7656-0.32812-0.92969 0-1.6211 0.11719-2.0781 0.34375-0.44922 0.23047-0.67188 0.58984-0.67188 1.0781 0 0.38672 0.17188 0.68359 0.51562 0.89062 0.34375 0.21094 0.95703 0.36719 1.8438 0.46875l0.85938 0.125c2.5078 0.32422 4.1953 0.85156 5.0625 1.5781 0.86328 0.73047 1.2969 1.8711 1.2969 3.4219 0 1.6367-0.60547 2.8672-1.8125 3.6875-1.1992 0.8125-2.9922 1.2188-5.375 1.2188-1.0234 0-2.0742-0.078125-3.1562-0.23438-1.0742-0.15625-2.1797-0.39453-3.3125-0.71875v-3.7188c0.96875 0.48047 1.9609 0.83984 2.9844 1.0781 1.0312 0.23047 2.0781 0.34375 3.1406 0.34375 0.95703 0 1.6758-0.12891 2.1562-0.39062 0.47656-0.26953 0.71875-0.66406 0.71875-1.1875 0-0.4375-0.16797-0.75781-0.5-0.96875-0.33594-0.21875-0.99609-0.38281-1.9844-0.5l-0.85938-0.10938c-2.1797-0.26953-3.7031-0.77344-4.5781-1.5156-0.875-0.73828-1.3125-1.8594-1.3125-3.3594 0-1.625 0.55078-2.8281 1.6562-3.6094 1.1133-0.78906 2.8203-1.1875 5.125-1.1875 0.89453 0 1.8359 0.074219 2.8281 0.21875 1 0.13672 2.082 0.35156 3.25 0.64062z"></path>
      </symbol>
      <symbol id="v" overflow="visible">
        <path d="m2.3594-15.312h4.8906v15.312h-4.8906zm0-5.9688h4.8906v4h-4.8906z"></path>
      </symbol>
      <symbol id="u" overflow="visible">
        <path d="m16.781-19.766v4.3125c-1.125-0.5-2.2266-0.875-3.2969-1.125-1.0625-0.25781-2.0703-0.39062-3.0156-0.39062-1.25 0-2.1797 0.17969-2.7812 0.53125-0.60547 0.34375-0.90625 0.88281-0.90625 1.6094 0 0.54297 0.20312 0.96875 0.60938 1.2812 0.40625 0.30469 1.1406 0.5625 2.2031 0.78125l2.25 0.45312c2.2695 0.44922 3.8789 1.1406 4.8281 2.0781 0.95703 0.92969 1.4375 2.2461 1.4375 3.9531 0 2.25-0.66797 3.9297-2 5.0312-1.3359 1.0938-3.3711 1.6406-6.1094 1.6406-1.3047 0-2.6055-0.125-3.9062-0.375-1.3047-0.23828-2.6055-0.59766-3.9062-1.0781v-4.4531c1.3008 0.69922 2.5625 1.2266 3.7812 1.5781 1.2188 0.34375 2.3906 0.51562 3.5156 0.51562 1.1562 0 2.0352-0.1875 2.6406-0.5625 0.61328-0.38281 0.92188-0.9375 0.92188-1.6562 0-0.63281-0.21094-1.125-0.625-1.4688-0.41797-0.34375-1.2461-0.65625-2.4844-0.9375l-2.0312-0.4375c-2.043-0.4375-3.5391-1.1328-4.4844-2.0938-0.9375-0.95703-1.4062-2.25-1.4062-3.875 0-2.0312 0.65625-3.5938 1.9688-4.6875s3.1953-1.6406 5.6562-1.6406c1.125 0 2.2734 0.085938 3.4531 0.25 1.1875 0.16797 2.4141 0.42188 3.6875 0.76562z"></path>
      </symbol>
      <symbol id="g" overflow="visible">
        <path d="m14.719-14.828v3.9844c-0.65625-0.45703-1.3242-0.79688-2-1.0156-0.66797-0.21875-1.3594-0.32812-2.0781-0.32812-1.3672 0-2.4336 0.40234-3.2031 1.2031-0.76172 0.79297-1.1406 1.9062-1.1406 3.3438 0 1.4297 0.37891 2.543 1.1406 3.3438 0.76953 0.79297 1.8359 1.1875 3.2031 1.1875 0.75781 0 1.4844-0.10938 2.1719-0.32812 0.6875-0.22656 1.3203-0.56641 1.9062-1.0156v4c-0.76172 0.28125-1.5391 0.48828-2.3281 0.625-0.78125 0.14453-1.5742 0.21875-2.375 0.21875-2.7617 0-4.9219-0.70703-6.4844-2.125-1.5547-1.4141-2.3281-3.3828-2.3281-5.9062 0-2.5312 0.77344-4.5039 2.3281-5.9219 1.5625-1.4141 3.7227-2.125 6.4844-2.125 0.80078 0 1.5938 0.074219 2.375 0.21875 0.78125 0.13672 1.5547 0.35156 2.3281 0.64062z"></path>
      </symbol>
      <symbol id="f" overflow="visible">
        <path d="m17.75-9.3281v9.3281h-4.9219v-7.1094c0-1.3438-0.03125-2.2656-0.09375-2.7656s-0.16797-0.86719-0.3125-1.1094c-0.1875-0.3125-0.44922-0.55469-0.78125-0.73438-0.32422-0.17578-0.69531-0.26562-1.1094-0.26562-1.0234 0-1.8242 0.39844-2.4062 1.1875-0.58594 0.78125-0.875 1.8711-0.875 3.2656v7.5312h-4.8906v-21.281h4.8906v8.2031c0.73828-0.88281 1.5195-1.5391 2.3438-1.9688 0.83203-0.42578 1.75-0.64062 2.75-0.64062 1.7695 0 3.1133 0.54688 4.0312 1.6406 0.91406 1.0859 1.375 2.6562 1.375 4.7188z"></path>
      </symbol>
      <symbol id="e" overflow="visible">
        <path d="m2.1875-5.9688v-9.3438h4.9219v1.5312c0 0.83594-0.007813 1.875-0.015625 3.125-0.011719 1.25-0.015625 2.0859-0.015625 2.5 0 1.2422 0.03125 2.1328 0.09375 2.6719 0.070313 0.54297 0.17969 0.93359 0.32812 1.1719 0.20703 0.32422 0.47266 0.57422 0.79688 0.75 0.32031 0.16797 0.69141 0.25 1.1094 0.25 1.0195 0 1.8203-0.39062 2.4062-1.1719 0.58203-0.78125 0.875-1.8672 0.875-3.2656v-7.5625h4.8906v15.312h-4.8906v-2.2188c-0.74219 0.89844-1.5234 1.5586-2.3438 1.9844-0.82422 0.41406-1.7344 0.625-2.7344 0.625-1.7617 0-3.1055-0.53906-4.0312-1.625-0.92969-1.082-1.3906-2.6602-1.3906-4.7344z"></path>
      </symbol>
      <symbol id="t" overflow="visible">
        <path d="m2.3594-21.281h4.8906v21.281h-4.8906z"></path>
      </symbol>
      <symbol id="s" overflow="visible">
        <path d="m1.5938-15.312h13.359v3.4219l-8.0625 8.3906h8.0625v3.5h-13.688v-3.4219l8.0625-8.3906h-7.7344z"></path>
      </symbol>
      <symbol id="r" overflow="visible">
        <path d="m12.422-21.281v3.2188h-2.7031c-0.6875 0-1.1719 0.125-1.4531 0.375-0.27344 0.25-0.40625 0.6875-0.40625 1.3125v1.0625h4.1875v3.5h-4.1875v11.812h-4.8906v-11.812h-2.4375v-3.5h2.4375v-1.0625c0-1.6641 0.46094-2.8984 1.3906-3.7031 0.92578-0.80078 2.3672-1.2031 4.3281-1.2031z"></path>
      </symbol>
      <symbol id="q" overflow="visible">
        <path d="m16.547-12.766c0.61328-0.94531 1.3477-1.6719 2.2031-2.1719 0.85156-0.5 1.7891-0.75 2.8125-0.75 1.7578 0 3.0977 0.54688 4.0156 1.6406 0.92578 1.0859 1.3906 2.6562 1.3906 4.7188v9.3281h-4.9219v-7.9844-0.35938c0.007813-0.13281 0.015625-0.32031 0.015625-0.5625 0-1.082-0.16406-1.8633-0.48438-2.3438-0.3125-0.48828-0.82422-0.73438-1.5312-0.73438-0.92969 0-1.6484 0.38672-2.1562 1.1562-0.51172 0.76172-0.77344 1.8672-0.78125 3.3125v7.5156h-4.9219v-7.9844c0-1.6953-0.14844-2.7852-0.4375-3.2656-0.29297-0.48828-0.8125-0.73438-1.5625-0.73438-0.9375 0-1.6641 0.38672-2.1719 1.1562-0.51172 0.76172-0.76562 1.8594-0.76562 3.2969v7.5312h-4.9219v-15.312h4.9219v2.2344c0.60156-0.86328 1.2891-1.5156 2.0625-1.9531 0.78125-0.4375 1.6406-0.65625 2.5781-0.65625 1.0625 0 2 0.25781 2.8125 0.76562 0.8125 0.51172 1.4258 1.2305 1.8438 2.1562z"></path>
      </symbol>
      <symbol id="p" overflow="visible">
        <path d="m2.5781-20.406h5.875l7.4219 14v-14h4.9844v20.406h-5.875l-7.4219-14v14h-4.9844z"></path>
      </symbol>
      <symbol id="o" overflow="visible">
        <path d="m17.75-9.3281v9.3281h-4.9219v-7.1406c0-1.3203-0.03125-2.2344-0.09375-2.7344s-0.16797-0.86719-0.3125-1.1094c-0.1875-0.3125-0.44922-0.55469-0.78125-0.73438-0.32422-0.17578-0.69531-0.26562-1.1094-0.26562-1.0234 0-1.8242 0.39844-2.4062 1.1875-0.58594 0.78125-0.875 1.8711-0.875 3.2656v7.5312h-4.8906v-15.312h4.8906v2.2344c0.73828-0.88281 1.5195-1.5391 2.3438-1.9688 0.83203-0.42578 1.75-0.64062 2.75-0.64062 1.7695 0 3.1133 0.54688 4.0312 1.6406 0.91406 1.0859 1.375 2.6562 1.375 4.7188z"></path>
      </symbol>
      <symbol id="n" overflow="visible">
        <path d="m2.5781-20.406h8.7344c2.5938 0 4.582 0.57812 5.9688 1.7344 1.3945 1.1484 2.0938 2.7891 2.0938 4.9219 0 2.1367-0.69922 3.7812-2.0938 4.9375-1.3867 1.1562-3.375 1.7344-5.9688 1.7344h-3.4844v7.0781h-5.25zm5.25 3.8125v5.7031h2.9219c1.0195 0 1.8047-0.25 2.3594-0.75 0.5625-0.5 0.84375-1.2031 0.84375-2.1094 0-0.91406-0.28125-1.6172-0.84375-2.1094-0.55469-0.48828-1.3398-0.73438-2.3594-0.73438z"></path>
      </symbol>
      <symbol id="m" overflow="visible">
        <path d="m2.3594-15.312h4.8906v15.031c0 2.0508-0.49609 3.6172-1.4844 4.7031-0.98047 1.082-2.4062 1.625-4.2812 1.625h-2.4219v-3.2188h0.85938c0.92578 0 1.5625-0.21094 1.9062-0.625 0.35156-0.41797 0.53125-1.2461 0.53125-2.4844zm0-5.9688h4.8906v4h-4.8906z"></path>
      </symbol>
    </defs>
    <g>
      <path d="m602.26 503.78c-0.42188-0.89453-10.602-22.25-27.043-36.348-15.805-13.551-18.766-23.262-18.57-25.855 0.37891-5.0078-1.9766-10.047-3.8789-13.25 2.1016-4.6914 3.0391-10.859 2.4141-19.285-0.83594-11.289-7.9844-17.762-19.609-17.762-1.4219 0-2.8555 0.125-4.2773 0.29297-20.371-21.043-129.26-136.84-143.32-151.8-1.1133-52.16-26.336-97.047-49.824-121.85-8.3906-8.8594-17.047-12.57-25.762-11.027-10.988 1.9414-18.543 12.035-22.262 18.316-7.8359-3.0078-15.062-3.0703-21.566-0.20703-6.0156 2.6562-10.242 7.4141-13.098 11.945-11.105-20.109-27.512-43.035-42.246-63.629-7.125-9.9609-13.859-19.371-19.543-27.816-11.777-17.488-21.723-18.207-28-15.719-9.3984 3.7188-13.949 17.023-12.309 27.121 1.9648 12.098 15.785 32.391 31.793 55.887 4.2891 6.3008 8.6953 12.77 12.98 19.246 6.6289 10.02 13.086 18.66 18.285 25.598 1.3672 1.832 2.7891 3.7305 4.1328 5.5547-11.047-6.2383-27.641-16.621-40.945-24.941-10.953-6.8555-22.281-13.938-31.383-19.348-18.148-10.797-31.199-13.766-39.898-9.0703-5.2188 2.8125-8.2773 8.2656-8.6055 15.355-0.79687 17.109 26.215 36.98 37.863 44.727 13.562 9.0234 42.168 26.387 66.383 40.906-5.6289-0.41406-10.602 0.17969-14.117 2.3398-3.6328 2.2344-5.7227 5.9453-5.8789 10.457-0.66016 19.344 16.129 35.133 49.906 46.938 21.105 7.3789 42.016 10.762 47.129 11.523 45.277 27.156 80.477 86.195 106.23 129.39 3.0703 5.1406 5.9961 10.035 8.8555 14.758-2.8945 3.7305-6.5312 9.9609-5.1875 16.816 1.1719 5.957 5.6562 10.566 13.281 13.742 2.1602 5.5781 9.1602 10.645 17.031 16.301 4.0312 2.9023 8.1992 5.8984 9.9297 7.8867 7.4492 8.5391 20.031 40.461 24.254 52.035 0.82422 2.2695 2.9727 3.6797 5.2578 3.6797 0.63672 0 1.2812-0.11328 1.9219-0.33984 2.9062-1.0586 4.4023-4.2734 3.3438-7.1797-1.625-4.457-16.18-43.902-26.332-55.551-2.582-2.9688-7.0781-6.1992-11.832-9.625-1.4727-1.0586-3.3867-2.4375-5.2969-3.8789 2.1055 0.10156 4.2969 0.16797 6.6797 0.16797 31.922 0 81.367-9.1992 96.02-14.18l2.2305-0.75781c6.625-2.2383 12.668-4.3125 17.449-7.6328 0.40234 1.1094 0.69922 2.1797 0.63672 3.0195-0.69922 9.3867 7.6875 22.539 22.445 35.191 14.594 12.512 24.121 32.434 24.207 32.633 0.95703 2.0234 2.9688 3.207 5.0664 3.207 0.80078 0 1.6133-0.17187 2.3867-0.53906 2.793-1.3047 3.9922-4.6367 2.6758-7.4375zm-316.5-231.91c-0.63672-0.375-1.3477-0.62109-2.082-0.72266-24.949-3.3945-89.477-18.48-88.496-47.152 0.035156-0.98047 0.27344-1.125 0.54687-1.293 5.7344-3.5273 30.117 3.625 49.293 12.516 2.7227 1.2539 5.9258 0.16797 7.3125-2.4766 1.3906-2.6445 0.46094-5.9062-2.1094-7.4258-0.80469-0.47656-80.859-47.719-106.43-64.73-19.699-13.105-33.219-27.453-32.871-34.883 0.14062-3.0977 1.0586-5.1172 2.7266-6.0156 1.7148-0.93359 8.8945-3.0352 28.863 8.8359 8.9883 5.3477 20.266 12.398 31.164 19.219 51.262 32.07 56.242 34.125 61.203 31.18 1.7148-1.0117 2.8711-2.6562 3.2656-4.6133 1.0039-5.0195-3.0234-10.395-12.738-23.391-5.1055-6.8281-11.465-15.32-17.914-25.07-4.3164-6.5195-8.7461-13.031-13.066-19.371-13.977-20.52-28.426-41.738-29.992-51.379-0.94531-5.8359 1.8125-13.496 5.375-14.906 2.5938-1.0469 7.7969 1.4727 14.59 11.559 5.7773 8.5781 12.555 18.047 19.73 28.078 17.074 23.863 36.43 50.91 46.609 72.32 1.0078 2.1172 3.207 3.3828 5.5703 3.1641 2.3359-0.21094 4.2969-1.8711 4.8984-4.1367 0.035157-0.11719 3.3555-12.195 11.934-15.949 4.6016-2.0117 10.281-1.2656 16.891 2.2109 1.3828 0.72656 3.0078 0.84375 4.4727 0.32422 1.4727-0.51562 2.6602-1.6289 3.2773-3.0586 1.6875-3.8984 8.3438-15.34 16.57-16.801 4.7891-0.8125 10.047 1.7539 15.676 7.6992 22.348 23.609 46.379 66.602 46.789 116.45 0.011719 1.4062 0.55469 2.7617 1.5195 3.793 4.8984 5.2148 110.27 117.31 140.39 148.77-2.2969 0.8125-4.0898 1.5664-4.9688 1.9648l-108.04 23.91c-2.8555-4.7227-5.7891-9.6133-8.8594-14.762-26.543-44.527-62.902-105.51-111.1-133.86zm238.05 162.86-2.25 0.76562c-13.664 4.6484-62.094 13.578-92.406 13.578-11.504 0-17.191-1.2695-19.945-2.3242-3.0234-1.1719-6.7461-3.1367-7.2969-5.8477-0.56641-2.8398 2.0156-6.7461 3.9688-8.9766l110.86-24.539c0.41016-0.09375 0.8125-0.23047 1.1875-0.41016 0.10156-0.042969 9.6641-4.5195 17.645-4.5195 6.5742 0 8.1016 2.8281 8.4453 7.3906 0.56641 7.6328-0.0625 12.27-2.2852 15.527-0.11719 0.16797-0.27344 0.30859-0.375 0.48828-3.0078 3.9336-8.5625 5.832-17.551 8.8672z"></path>
    </g>
  </symbol>
</svg>